<?xml version="1.0" encoding="utf-8"?>
<!-- Generator: Adobe Illustrator 24.3.0, SVG Export Plug-In . SVG Version: 6.00 Build 0)  -->
<svg version="1.1" id="Layer_1" xmlns="http://www.w3.org/2000/svg" xmlns:xlink="http://www.w3.org/1999/xlink" x="0px" y="0px"
	 viewBox="0 0 235.4 30.9" style="enable-background:new 0 0 235.4 30.9;" xml:space="preserve">
<style type="text/css">
	.st0{fill:#FFFFFF;}
</style>
<g id="Group_1766" transform="translate(-17537 -14538)">
	<path id="Path_1" class="st0" d="M17566.7,14547.4c-1.5-3.5-4.3-6.4-7.8-8c-1.8-0.8-3.7-1.3-5.7-1.4h-0.8c-2.1,0-4.3,0.4-6.2,1.3
		c-1.9,0.8-3.6,2-5,3.5c-1.4,1.5-2.5,3.2-3.2,5.2c-0.7,2-1.1,4.1-1,6.3c0.1,2,0.6,3.9,1.4,5.7c1.6,3.5,4.5,6.2,8,7.8
		c1.7,0.8,3.5,1.1,5.4,1.1h16v-16C17567.9,14551,17567.5,14549.1,17566.7,14547.4z M17562.3,14551.3h-10.4v4.3h6
		c-0.3,0.7-0.7,1.4-1.3,2c-2.3,2.3-5.9,2.3-8.2,0s-2.3-5.9,0-8.2c2.2-2.2,5.8-2.3,8.1-0.1l0.2,0.2h5.1l-0.5-0.9
		c-1.3-2.4-3.5-4.1-6.2-4.8c-2.9-0.7-5.9-0.3-8.5,1.3c-1.1,0.6-2,1.5-2.6,2.6c-2.6,4.4-2.2,9.5,1.2,12.9c1.9,1.9,4.5,3,7.2,3
		c2,0,3.9-0.6,5.6-1.6c1.1-0.6,1.9-1.4,2.6-2.4c0.8-1.2,1.3-2.5,1.6-3.9h1.9c-1.2,6.5-7.4,10.8-13.9,9.6c-5.4-1-9.5-5.6-9.8-11.1
		c-0.2-3.3,1-6.5,3.3-8.8c2.2-2.4,5.4-3.7,8.6-3.8h0.6c5.5,0.3,10.1,4.3,11.1,9.8H17562.3z"/>
	<path id="Path_2" class="st0" d="M17587.3,14556h-11v0.1c0,2,0.8,4.3,4,4.3c2.5,0,4.8-0.2,6.2-0.3h0.1c0.3,0,0.6,0.2,0.6,0.5
		c0,0,0,0,0,0v2.3c0,0.6-0.1,0.8-0.7,0.9c-2.2,0.4-4.4,0.6-6.6,0.6c-3.4,0-8.2-1.8-8.2-8.5v-2.5c0-5.3,3-8.6,8.1-8.6
		c5.2,0,8,3.6,8,8.6v1.9C17588,14555.7,17587.8,14556,17587.3,14556z M17583.5,14552.7c0-2.6-1.5-4.2-3.6-4.2
		c-2.1,0-3.6,1.5-3.6,4.2v0.1h7.2V14552.7z"/>
	<path id="Path_3" class="st0" d="M17606.8,14563.9h-3.1c-0.4,0-0.7-0.3-0.7-0.7v-11c0-3-0.3-3.8-2.9-3.8c-1.3,0.1-2.7,0.5-3.8,1.2
		v13.6c0,0.4-0.3,0.7-0.7,0.7h-3.1c-0.4,0-0.7-0.3-0.7-0.7v-17.7c0-0.4,0.3-0.6,0.6-0.7c0,0,0,0,0,0h3c0.4,0,0.6,0.3,0.7,0.6
		c0,0,0,0,0,0v0.7c1.6-1.2,3.5-1.7,5.5-1.6c4.9,0,5.9,3.3,5.9,7.6v11C17607.5,14563.6,17607.2,14563.9,17606.8,14563.9z"/>
	<path id="Path_4" class="st0" d="M17621.2,14564c-0.8,0.1-1.5,0.2-2.3,0.2c-3.8,0-5.4-0.8-5.4-5.4v-10.6l-3.2-0.5
		c-0.4,0-0.7-0.3-0.7-0.7v-1.5c0-0.4,0.3-0.6,0.6-0.7c0,0,0,0,0,0h3.2v-2.8c0-0.4,0.3-0.7,0.7-0.7l3.1-0.6h0.1
		c0.3,0,0.5,0.2,0.6,0.5c0,0,0,0,0,0v3.5h3.1c0.4,0,0.7,0.3,0.7,0.6c0,0,0,0,0,0v2c0,0.4-0.3,0.6-0.6,0.7c0,0,0,0,0,0h-3.1v10.6
		c0,1.7,0.1,1.9,1.3,1.9h1.8c0.4,0,0.7,0.2,0.7,0.5v2.1C17621.9,14563.7,17621.6,14563.9,17621.2,14564z"/>
	<path id="Path_5" class="st0" d="M17628.9,14563.9h-3.2c-0.4,0-0.7-0.3-0.7-0.7v-24.3c0-0.4,0.3-0.6,0.6-0.7c0,0,0,0,0,0h3.2
		c0.4,0,0.6,0.3,0.7,0.6c0,0,0,0,0,0v24.3C17629.5,14563.6,17629.3,14563.9,17628.9,14563.9z"/>
	<path id="Path_6" class="st0" d="M17649,14556h-11v0.1c0,2,0.8,4.3,4,4.3c2.5,0,4.8-0.2,6.2-0.3h0.1c0.3,0,0.6,0.2,0.6,0.5
		c0,0,0,0,0,0v2.3c0,0.6-0.1,0.8-0.7,0.9c-2.2,0.4-4.4,0.6-6.6,0.6c-3.4,0-8.2-1.8-8.2-8.5v-2.5c0-5.3,3-8.6,8.1-8.6
		c5.2,0,8,3.6,8,8.6v1.9C17649.7,14555.7,17649.5,14556,17649,14556z M17645.2,14552.7c0-2.6-1.5-4.2-3.6-4.2
		c-2.1,0-3.6,1.5-3.6,4.2v0.1h7.2V14552.7L17645.2,14552.7z"/>
	<path id="Path_7" class="st0" d="M17659.7,14564.2c-2,0-4.1-0.2-6.1-0.7c-0.4-0.1-0.7-0.4-0.7-0.8v-2c0-0.3,0.3-0.6,0.6-0.6h0.1
		c1.6,0.2,4.7,0.4,5.7,0.4c2.1,0,2.4-0.7,2.4-1.6c0-0.7-0.4-1-1.5-1.7l-4.7-2.8c-1.7-1-2.7-2.7-2.8-4.7c0-3.4,2.1-5.1,6.4-5.1
		c2,0,4,0.2,6,0.7c0.4,0.1,0.7,0.4,0.6,0.8v2c0,0.4-0.2,0.7-0.6,0.7h-0.1c-1.9-0.2-3.7-0.4-5.6-0.4c-1.6,0-2.3,0.4-2.3,1.4
		c0,0.6,0.5,0.9,1.4,1.4l4.4,2.7c2.8,1.7,3.2,3.4,3.2,5.1C17666.4,14561.9,17664.2,14564.2,17659.7,14564.2z"/>
	<path id="Path_8" class="st0" d="M17679.8,14564c-0.8,0.1-1.5,0.2-2.3,0.2c-3.8,0-5.4-0.8-5.4-5.4v-10.6l-3.2-0.5
		c-0.4,0-0.7-0.3-0.7-0.7v-1.5c0-0.4,0.3-0.6,0.6-0.7c0,0,0,0,0,0h3.2v-2.8c0-0.4,0.3-0.7,0.7-0.7l3.2-0.6h0.1
		c0.3,0,0.5,0.2,0.6,0.5c0,0,0,0,0,0v3.5h3.1c0.4,0,0.6,0.3,0.7,0.6c0,0,0,0,0,0v2c0,0.4-0.3,0.6-0.6,0.7c0,0,0,0,0,0h-3.1v10.6
		c0,1.7,0.1,1.9,1.3,1.9h1.8c0.4,0,0.7,0.2,0.7,0.5v2.1C17680.4,14563.7,17680.2,14563.9,17679.8,14564z"/>
	<path id="Path_9" class="st0" d="M17698.4,14563.9h-3.1c-0.4,0-0.7-0.3-0.7-0.6c0,0,0,0,0,0v-0.8c-1.5,1.1-3.4,1.7-5.3,1.7
		c-1.5,0.1-3-0.4-4.2-1.4c-1.3-1.3-1.7-3.3-1.7-6.2v-11c0-0.4,0.3-0.7,0.7-0.7h3.1c0.4,0,0.7,0.3,0.7,0.7v11c0,1.7,0.1,2.7,0.8,3.2
		c0.6,0.5,1.4,0.7,2.1,0.6c1.4-0.2,2.7-0.6,3.8-1.4v-13.5c0-0.4,0.3-0.7,0.7-0.7h3.1c0.4,0,0.7,0.3,0.7,0.7v17.7
		c0.1,0.3-0.1,0.6-0.4,0.7C17698.5,14563.9,17698.4,14564,17698.4,14563.9z"/>
	<path id="Path_10" class="st0" d="M17717.7,14563.3c-2.2,0.6-4.5,0.9-6.8,0.9c-5.5,0-8.1-3.2-8.1-8.5v-2.6c0-5.3,2.6-8.5,8.1-8.5
		c1.1,0,2.2,0.1,3.2,0.2v-6c0-0.4,0.3-0.6,0.6-0.7c0,0,0,0,0,0h3.1c0.4,0,0.6,0.3,0.7,0.6c0,0,0,0,0,0v23.5
		C17718.6,14563,17718.4,14563.1,17717.7,14563.3z M17714.1,14548.5c-1.1-0.1-2.2-0.2-3.2-0.2c-2.9,0-3.6,2.1-3.6,4.8v2.6
		c0,2.8,0.7,4.8,3.6,4.8c1.1,0,2.2-0.1,3.2-0.2V14548.5z"/>
	<path id="Path_11" class="st0" d="M17737.9,14556h-11v0.1c0,2,0.8,4.3,4,4.3c2.5,0,4.8-0.2,6.2-0.3h0.1c0.3,0,0.6,0.2,0.6,0.5
		c0,0,0,0,0,0v2.3c0,0.6-0.1,0.8-0.7,0.9c-2.2,0.4-4.4,0.6-6.6,0.6c-3.4,0-8.2-1.8-8.2-8.5v-2.5c0-5.3,3-8.6,8.1-8.6
		c5.2,0,8,3.6,8,8.6v1.9C17738.6,14555.7,17738.4,14556,17737.9,14556z M17734.1,14552.7c0-2.6-1.5-4.2-3.6-4.2s-3.6,1.5-3.6,4.2
		v0.1h7.2V14552.7L17734.1,14552.7z"/>
	<path id="Path_12" class="st0" d="M17757.4,14563.9h-3.1c-0.4,0-0.7-0.3-0.7-0.7v-11c0-3-0.3-3.8-2.9-3.8c-1.3,0.1-2.7,0.5-3.8,1.2
		v13.6c0,0.4-0.3,0.7-0.7,0.7h-3.1c-0.4,0-0.7-0.3-0.7-0.7v-17.7c0-0.4,0.3-0.6,0.6-0.7c0,0,0,0,0,0h3c0.4,0,0.7,0.3,0.7,0.6
		c0,0,0,0,0,0v0.7c1.6-1.2,3.5-1.7,5.5-1.6c4.9,0,5.9,3.3,5.9,7.6v11C17758.1,14563.6,17757.8,14563.9,17757.4,14563.9z"/>
	<path id="Path_13" class="st0" d="M17771.8,14564c-0.8,0.1-1.5,0.2-2.3,0.2c-3.8,0-5.4-0.8-5.4-5.4v-10.6l-3.2-0.5
		c-0.4,0-0.7-0.3-0.7-0.7v-1.5c0-0.4,0.3-0.6,0.6-0.7c0,0,0,0,0,0h3.2v-2.8c0-0.4,0.3-0.7,0.7-0.7l3.2-0.6h0.1
		c0.3,0,0.5,0.2,0.6,0.5c0,0,0,0,0,0v3.5h3.1c0.4,0,0.6,0.3,0.7,0.6c0,0,0,0,0,0v2c0,0.4-0.3,0.6-0.6,0.7c0,0,0,0,0,0h-3.1v10.6
		c0,1.7,0.1,1.9,1.3,1.9h1.8c0.4,0,0.7,0.2,0.7,0.5v2.1C17772.4,14563.7,17772.2,14563.9,17771.8,14564z"/>
</g>
</svg>
