<svg data-name="Laag 1" xmlns="http://www.w3.org/2000/svg" width="767.36" height="151.55"><rect id="backgroundrect" width="100%" height="100%" x="0" y="0" fill="none" stroke="none"/><defs><style>.cls-1{fill:#00aaca;}.cls-2{fill:#b9ce00;}.cls-3{fill:#f9b000;}.cls-4{fill:#d7007f;}.cls-5{fill:#fff;}</style></defs><title>logo_gentlestudent_site</title><g class="currentLayer" style=""><title>Layer 1</title><path class="cls-1" d="M641.2100219726562,72.22000122070312 v-6.110000133514404 c0,-1 -0.7799999713897705,-1.4600000381469727 -2,-1.4600000381469727 H634 c-3.5,0 -3.7899999618530273,-0.5799999833106995 -3.7899999618530273,-5.440000057220459 V28.729995727539062 H639 a2,2 0 0 0 1.940000057220459,-1.940000057220459 V21.06999969482422 A2,2 0 0 0 639,19.12999725341797 h-8.739999771118164 v-10 a1.399999976158142,1.399999976158142 0 0 0 -1.5499999523162842,-1.4600000381469727 h-0.38999998569488525 l-9,1.5499999523162842 a2.0899999141693115,2.0899999141693115 0 0 0 -1.940000057220459,2 v8 h-9.119999885559082 a2,2 0 0 0 -2,1.940000057220459 V25.449996948242188 a2.0999999046325684,2.0999999046325684 0 0 0 2,2 l9.119999885559082,1.350000023841858 v30.479999542236328 c0,13 4.46999979019165,15.4399995803833 15.430000305175781,15.4399995803833 a41,41 0 0 0 6.599999904632568,-0.6800000071525574 c1.2699999809265137,-0.20000000298023224 1.850000023841858,-0.7799999713897705 1.850000023841858,-1.75 m-43.20000076293945,-0.38999998569488525 V40.18999481201172 C598,27.860000610351562 595.2000122070312,18.449996948242188 581.219970703125,18.449996948242188 c-6.400000095367432,0 -10.09000015258789,1.059999942779541 -15.720000267028809,4.650000095367432 v-2 a2,2 0 0 0 -1.940000057220459,-1.940000057220459 h-8.449999809265137 a1.940000057220459,1.940000057220459 0 0 0 -1.940000057220459,1.940000057220459 v50.7599983215332 a2,2 0 0 0 1.940000057220459,2 H564 a2,2 0 0 0 1.940000057220459,-2 v-39 c4.079999923706055,-2.130000114440918 7.670000076293945,-3.490000009536743 11,-3.490000009536743 c7.480000019073486,0 8.25,2.4200000762939453 8.25,10.869999885559082 v31.639999389648438 a2,2 0 0 0 1.940000057220459,2 h8.930000305175781 a2,2 0 0 0 1.940000057220459,-2 m-68.72000122070312,-30 H508.719970703125 V41.44999694824219 c0,-7.670000076293945 4.360000133514404,-11.9399995803833 10.380000114440918,-11.9399995803833 s10.1899995803833,4.369999885559082 10.1899995803833,11.9399995803833 zm12.90999984741211,6.699999809265137 v-5.440000057220459 c0,-14.460000038146973 -8.149999618530273,-24.649999618530273 -23.100000381469727,-24.649999618530273 s-23.290000915527344,9.510000228881836 -23.290000915527344,24.649999618530273 v7.179999828338623 c0,19.1299991607666 13.779999732971191,24.3700008392334 23.489999771118164,24.3700008392334 a86.66000366210938,86.66000366210938 0 0 0 18.829999923706055,-1.649999976158142 c1.7400000095367432,-0.30000001192092896 2,-1 2,-2.5299999713897705 v-6.400000095367432 c0,-1 -0.7799999713897705,-1.4600000381469727 -1.75,-1.4600000381469727 h-0.28999999165534973 c-4.079999923706055,0.38999998569488525 -10.779999732971191,1 -17.8700008392334,1 c-9.3100004196167,0 -11.640000343322754,-6.699999809265137 -11.640000343322754,-12.329999923706055 v-0.28999999165534973 h31.639999389648438 c1.3600000143051147,0 1.940000057220459,-0.8700000047683716 1.940000057220459,-2.4200000762939453 M472,63.44999694824219 a56.18000030517578,56.18000030517578 0 0 1 -9.3100004196167,0.6800000071525574 c-8.350000381469727,0 -10.390000343322754,-5.920000076293945 -10.390000343322754,-13.880000114440918 v-7.46999979019165 c0,-8 2,-13.880000114440918 10.390000343322754,-13.880000114440918 a80.37999725341797,80.37999725341797 0 0 1 9.3100004196167,0.6800000071525574 zm12.819999694824219,6 V1.9399948120117188 a2,2 0 0 0 -1.940000057220459,-1.940000057220459 H474 a2,2 0 0 0 -2,1.940000057220459 V19.12999725341797 a72.47000122070312,72.47000122070312 0 0 0 -9.3100004196167,-0.6800000071525574 c-15.630000114440918,0 -23.200000762939453,9.220000267028809 -23.200000762939453,24.360000610351562 v7.46999979019165 c0,15.149999618530273 7.570000171661377,24.3700008392334 23.200000762939453,24.3700008392334 a82.91000366210938,82.91000366210938 0 0 0 19.510000228881836,-2.5299999713897705 c2.2300000190734863,-0.5799999833106995 2.619999885559082,-1.159999966621399 2.619999885559082,-2.619999885559082 m-56,2.430000066757202 V21.159996032714844 a2,2 0 0 0 -1.940000057220459,-2 H418 a2,2 0 0 0 -1.940000057220459,2 v38.83000183105469 c-2.7200000286102295,1.4600000381469727 -7.380000114440918,3.880000114440918 -11,3.880000114440918 c-3,0 -4.659999847412109,-0.5799999833106995 -6,-1.7400000095367432 c-1.840000033378601,-1.649999976158142 -2.2300000190734863,-4.46999979019165 -2.2300000190734863,-9.319999694824219 V21.159996032714844 a2,2 0 0 0 -1.940000057220459,-2 h-8.930000305175781 a2,2 0 0 0 -1.940000057220459,2 v31.649999618530273 c0,8 1.2599999904632568,14.069999694824219 4.849999904632568,17.65999984741211 c2.819999933242798,2.819999933242798 7.079999923706055,4.079999923706055 11.9399995803833,4.079999923706055 c6.210000038146973,0 10.1899995803833,-1.5499999523162842 15.239999771118164,-4.849999904632568 v2.2300000190734863 a1.940000057220459,1.940000057220459 0 0 0 1.940000057220459,1.940000057220459 h8.930000305175781 a1.940000057220459,1.940000057220459 0 0 0 1.940000057220459,-1.940000057220459 m-53.58000183105469,0.28999999165534973 v-6.110000133514404 c0,-1 -0.7699999809265137,-1.4600000381469727 -2,-1.4600000381469727 h-5.139999866485596 c-3.5,0 -3.7899999618530273,-0.5799999833106995 -3.7899999618530273,-5.440000057220459 V28.729995727539062 H373 a1.940000057220459,1.940000057220459 0 0 0 1.940000057220459,-1.940000057220459 V21.06999969482422 A1.940000057220459,1.940000057220459 0 0 0 373,19.12999725341797 h-8.739999771118164 v-10 a1.399999976158142,1.399999976158142 0 0 0 -1.5499999523162842,-1.4600000381469727 h-0.38999998569488525 l-9,1.5499999523162842 a2.0999999046325684,2.0999999046325684 0 0 0 -1.940000057220459,2 v8 h-9.119999885559082 a1.940000057220459,1.940000057220459 0 0 0 -1.940000057220459,1.940000057220459 V25.449996948242188 a2.0899999141693115,2.0899999141693115 0 0 0 1.940000057220459,2 l9.119999885559082,1.350000023841858 v30.479999542236328 c0,13 4.46999979019165,15.4399995803833 15.4399995803833,15.4399995803833 a41.08000183105469,41.08000183105469 0 0 0 6.599999904632568,-0.6800000071525574 c1.2599999904632568,-0.20000000298023224 1.840000033378601,-0.7799999713897705 1.840000033378601,-1.75 M334,59.5 c0,-5 -1.1699999570846558,-9.800000190734863 -9.319999694824219,-14.75 L312,36.98999786376953 c-2.4200000762939453,-1.4600000381469727 -3.880000114440918,-2.430000066757202 -3.880000114440918,-4 c0,-3 2,-4.079999923706055 6.699999809265137,-4.079999923706055 a145.39999389648438,145.39999389648438 0 0 1 16,1.159999966621399 h0.3799999952316284 c1,0 1.559999942779541,-0.6800000071525574 1.559999942779541,-1.840000033378601 V22.6199951171875 A2.109999895095825,2.109999895095825 0 0 0 331,20.389999389648438 A71.83999633789062,71.83999633789062 0 0 0 313.7099914550781,18.449996948242188 c-12.329999923706055,0 -18.440000534057617,4.849999904632568 -18.440000534057617,14.5600004196167 c0,5.630000114440918 3.4000000953674316,10.479999542236328 8.149999618530273,13.390000343322754 l13.300000190734863,8.149999618530273 c3.109999895095825,2 4.269999980926514,3.109999895095825 4.269999980926514,5 c0,2.630000114440918 -0.8700000047683716,4.659999847412109 -6.889999866485596,4.659999847412109 c-2.9100000858306885,0 -11.649999618530273,-0.47999998927116394 -16.309999465942383,-1.0700000524520874 h-0.38999998569488525 a1.6200000047683716,1.6200000047683716 0 0 0 -1.649999976158142,1.559999942779541 V70.44999694824219 a2.190000057220459,2.190000057220459 0 0 0 1.850000023841858,2.2300000190734863 c5.429999828338623,1.4600000381469727 13.59000015258789,1.9500000476837158 17.3700008392334,1.9500000476837158 c12.720000267028809,0 19,-6.699999809265137 19,-15.149999618530273 m-60.66999816894531,-17.65999984741211 H252.75 V41.44999694824219 c0,-7.670000076293945 4.369999885559082,-11.9399995803833 10.390000343322754,-11.9399995803833 s10.1899995803833,4.369999885559082 10.1899995803833,11.9399995803833 zm12.90999984741211,6.699999809265137 v-5.440000057220459 c0,-14.460000038146973 -8.149999618530273,-24.649999618530273 -23.100000381469727,-24.649999618530273 s-23.290000915527344,9.510000228881836 -23.290000915527344,24.649999618530273 v7.179999828338623 c0,19.1299991607666 13.779999732971191,24.3700008392334 23.479999542236328,24.3700008392334 a86.69999694824219,86.69999694824219 0 0 0 18.84000015258789,-1.649999976158142 c1.7400000095367432,-0.30000001192092896 2,-1 2,-2.5299999713897705 v-6.400000095367432 c0,-1 -0.7699999809265137,-1.4600000381469727 -1.7400000095367432,-1.4600000381469727 h-0.28999999165534973 c-4.079999923706055,0.38999998569488525 -10.779999732971191,1 -17.860000610351562,1 c-9.319999694824219,0 -11.649999618530273,-6.699999809265137 -11.649999618530273,-12.329999923706055 v-0.28999999165534973 H284.29998779296875 c1.3600000143051147,0 1.940000057220459,-0.8700000047683716 1.940000057220459,-2.4200000762939453 m-57.849998474121094,23.290000915527344 V1.9399948120117188 a1.8600000143051147,1.8600000143051147 0 0 0 -1.840000033378601,-1.940000057220459 h-9 a2,2 0 0 0 -1.940000057220459,1.940000057220459 v69.88999938964844 a2,2 0 0 0 1.940000057220459,2 h9 a2,2 0 0 0 1.840000033378601,-2 m-22,0.38999998569488525 v-6.110000133514404 c0,-1 -0.7799999713897705,-1.4600000381469727 -2,-1.4600000381469727 h-5.139999866485596 c-3.5,0 -3.7899999618530273,-0.5799999833106995 -3.7899999618530273,-5.440000057220459 V28.729995727539062 h8.739999771118164 a2,2 0 0 0 1.940000057220459,-1.940000057220459 V21.06999969482422 a2,2 0 0 0 -1.940000057220459,-1.940000057220459 h-8.739999771118164 v-10 a1.399999976158142,1.399999976158142 0 0 0 -1.5499999523162842,-1.4600000381469727 h-0.38999998569488525 l-9,1.5499999523162842 a2.0899999141693115,2.0899999141693115 0 0 0 -1.940000057220459,2 v8 h-9.119999885559082 a1.940000057220459,1.940000057220459 0 0 0 -1.940000057220459,1.940000057220459 V25.449996948242188 a2.0899999141693115,2.0899999141693115 0 0 0 1.940000057220459,2 l9.119999885559082,1.350000023841858 v30.479999542236328 c0,13 4.46999979019165,15.4399995803833 15.430000305175781,15.4399995803833 a40.86000061035156,40.86000061035156 0 0 0 6.599999904632568,-0.6800000071525574 c1.2699999809265137,-0.20000000298023224 1.850000023841858,-0.7799999713897705 1.850000023841858,-1.75 m-43.20000076293945,-0.38999998569488525 V40.18999481201172 c0,-12.329999923706055 -2.809999942779541,-21.739999771118164 -16.790000915527344,-21.739999771118164 c-6.400000095367432,0 -10.09000015258789,1.059999942779541 -15.720000267028809,4.650000095367432 v-2 a2,2 0 0 0 -1.940000057220459,-1.940000057220459 h-8.449999809265137 a2,2 0 0 0 -1.940000057220459,1.940000057220459 v50.7599983215332 a2,2 0 0 0 1.940000057220459,2 h8.930000305175781 a2,2 0 0 0 1.940000057220459,-2 v-39 c4.079999923706055,-2.130000114440918 7.670000076293945,-3.490000009536743 11,-3.490000009536743 c7.480000019073486,0 8.25,2.4200000762939453 8.25,10.869999885559082 v31.639999389648438 a2,2 0 0 0 1.940000057220459,2 h8.930000305175781 a2,2 0 0 0 1.940000057220459,-2 m-68.72000122070312,-30 H73.8699951171875 V41.44999694824219 c0,-7.670000076293945 4.360000133514404,-11.9399995803833 10.380000114440918,-11.9399995803833 s10.1899995803833,4.369999885559082 10.1899995803833,11.9399995803833 zm12.90999984741211,6.699999809265137 v-5.440000057220459 c0,-14.460000038146973 -8.149999618530273,-24.649999618530273 -23.100000381469727,-24.649999618530273 S61,27.959999084472656 61,43.099998474121094 v7.179999828338623 c0,19.1299991607666 13.779999732971191,24.3700008392334 23.489999771118164,24.3700008392334 a86.66000366210938,86.66000366210938 0 0 0 18.829999923706055,-1.649999976158142 c1.7400000095367432,-0.30000001192092896 2,-1 2,-2.5299999713897705 v-6.400000095367432 c0,-1 -0.7799999713897705,-1.4600000381469727 -1.75,-1.4600000381469727 h-0.28999999165534973 c-4.079999923706055,0.38999998569488525 -10.779999732971191,1 -17.860000610351562,1 c-9.319999694824219,0 -11.649999618530273,-6.699999809265137 -11.649999618530273,-12.329999923706055 v-0.28999999165534973 h31.639999389648438 c1.3600000143051147,0 1.940000057220459,-0.8700000047683716 1.940000057220459,-2.4200000762939453 M49,70.66999816894531 V38.04999542236328 a2,2 0 0 0 -1.940000057220459,-1.940000057220459 h-9.609999656677246 a1.8700000047683716,1.8700000047683716 0 0 0 -1.850000023841858,1.940000057220459 v24.760000228881836 c-3,0.1899999976158142 -6,0.2800000011920929 -9.609999656677246,0.2800000011920929 c-5.71999979019165,0 -12.420000076293945,-4.460000038146973 -12.420000076293945,-18.239999771118164 v-14 c0,-13.779999732971191 6.210000038146973,-18.350000381469727 12.710000038146973,-18.350000381469727 c9.319999694824219,0 16,0.38999998569488525 20.479999542236328,0.7799999713897705 h0.30000001192092896 c1.5499999523162842,0 1.940000057220459,-0.6800000071525574 1.940000057220459,-2 v-6.5 c0,-1.2599999904632568 -0.5799999833106995,-1.75 -1.850000023841858,-2 a128.13999938964844,128.13999938964844 0 0 0 -20.8700008392334,-1.75 c-11.550000190734863,0 -26.299999237060547,6.900000095367432 -26.299999237060547,29.899999618530273 v14 c0,22.90999984741211 15.529999732971191,29.799999237060547 26,29.799999237060547 c10,0 16.309999465942383,-0.6800000071525574 21.15999984741211,-1.649999976158142 a2.1500000953674316,2.1500000953674316 0 0 0 1.850000023841858,-2.3299999237060547 " id="svg_1"/><polygon class="cls-2" points="166.04 149.11 175.09 149.11 175.09 140.06 166.07 140.06 166.04 149.11" id="svg_2"/><rect class="cls-2" x="166.0399932861328" y="121.94999694824219" width="9.050000190734863" height="9.050000190734863" id="svg_3"/><path class="cls-3" d="M147.8599853515625,139.97999572753906 h-4.570000171661377 a4.559999942779541,4.559999942779541 0 1 1 4.570000171661377,-4.559999942779541 zm-4.570000171661377,-18.25 a13.6899995803833,13.6899995803833 0 0 0 0,27.3799991607666 H157 V135.4499969482422 a13.680000305175781,13.680000305175781 0 0 0 -13.6899995803833,-13.6899995803833 " id="svg_4"/><path class="cls-1" d="M198.76998901367188,136.70999145507812 h-1.899999976158142 c-2.3299999237060547,0 -2.930000066757202,0.800000011920929 -2.930000066757202,2.430000066757202 v0.30000001192092896 c0,1.399999976158142 0.699999988079071,1.6699999570846558 2.0999999046325684,1.6699999570846558 a6.159999847412109,6.159999847412109 0 0 0 2.7300000190734863,-0.7300000190734863 zm4.639999866485596,8.170000076293945 h-3.740000009536743 a0.6700000166893005,0.6700000166893005 0 0 1 -0.6600000262260437,-0.6700000166893005 v-0.5299999713897705 a7.389999866485596,7.389999866485596 0 0 1 -4.639999866485596,1.5 c-2.9000000953674316,0 -5.710000038146973,-1.399999976158142 -5.710000038146973,-5.739999771118164 v-0.30000001192092896 c0,-3.9000000953674316 2.509999990463257,-5.639999866485596 8.210000038146973,-5.639999866485596 h1.7999999523162842 v-1.2000000476837158 c0,-1.899999976158142 -0.9300000071525574,-2.299999952316284 -2.5,-2.299999952316284 c-2.140000104904175,0 -4.5,0.12999999523162842 -5.539999961853027,0.23000000417232513 h-0.1599999964237213 a0.5400000214576721,0.5400000214576721 0 0 1 -0.6000000238418579,-0.6000000238418579 v-2.700000047683716 a0.7400000095367432,0.7400000095367432 0 0 1 0.6299999952316284,-0.7300000190734863 a26.229999542236328,26.229999542236328 0 0 1 5.769999980926514,-0.699999988079071 c4.809999942779541,0 7.809999942779541,1.9299999475479126 7.809999942779541,6.800000190734863 v11.90999984741211 a0.6700000166893005,0.6700000166893005 0 0 1 -0.6700000166893005,0.6700000166893005 " id="svg_5"/><path class="cls-1" d="M218.73001098632812,129.97000122070312 h-0.27000001072883606 a9.09000015258789,9.09000015258789 0 0 0 -4.309999942779541,1.159999966621399 v13 a0.6899999976158142,0.6899999976158142 0 0 1 -0.6600000262260437,0.699999988079071 h-4 a0.7200000286102295,0.7200000286102295 0 0 1 -0.699999988079071,-0.699999988079071 V126.44999694824219 a0.6700000166893005,0.6700000166893005 0 0 1 0.6700000166893005,-0.6700000166893005 h4 a0.6700000166893005,0.6700000166893005 0 0 1 0.6600000262260437,0.6700000166893005 v0.6700000166893005 a7.150000095367432,7.150000095367432 0 0 1 4.510000228881836,-1.6100000143051147 a0.6700000166893005,0.6700000166893005 0 0 1 0.6700000166893005,0.6700000166893005 v3.1700000762939453 c0,0.30000001192092896 -0.20000000298023224,0.6399999856948853 -0.5,0.6399999856948853 " id="svg_6"/><path class="cls-1" d="M233.489990234375,144.91000366210938 a14.15999984741211,14.15999984741211 0 0 1 -2.640000104904175,0.27000001072883606 c-3.6700000762939453,0 -5.599999904632568,-1 -5.599999904632568,-5.699999809265137 v-9.680000305175781 l-2.6700000762939453,-0.4399999976158142 a0.7699999809265137,0.7699999809265137 0 0 1 -0.699999988079071,-0.699999988079071 V126.44999694824219 a0.7200000286102295,0.7200000286102295 0 0 1 0.699999988079071,-0.699999988079071 h2.6700000762939453 v-2.7300000190734863 a0.7099999785423279,0.7099999785423279 0 0 1 0.6700000166893005,-0.6700000166893005 l4.070000171661377,-0.699999988079071 h0.10000000149011612 a0.5699999928474426,0.5699999928474426 0 0 1 0.6000000238418579,0.5699999928474426 v3.5299999713897705 h2.7300000190734863 a0.6700000166893005,0.6700000166893005 0 0 1 0.6700000166893005,0.6700000166893005 v2.700000047683716 a0.6700000166893005,0.6700000166893005 0 0 1 -0.6700000166893005,0.6700000166893005 h-2.7300000190734863 v9.710000038146973 c0,1.3300000429153442 0.10000000149011612,1.5700000524520874 1.100000023841858,1.5700000524520874 h1.6299999952316284 c0.4399999976158142,0 0.699999988079071,0.20000000298023224 0.699999988079071,0.5600000023841858 v2.609999895095825 a0.6700000166893005,0.6700000166893005 0 0 1 -0.6299999952316284,0.6600000262260437 " id="svg_7"/><path class="cls-1" d="M248.739990234375,133.5399932861328 c0,-2.4700000286102295 -1.1399999856948853,-3.7100000381469727 -3,-3.7100000381469727 s-3.069999933242798,1.2699999809265137 -3.069999933242798,3.7100000381469727 v0.12999999523162842 h6.070000171661377 zm4.570000171661377,3.4700000286102295 H242.67001342773438 v0.05999999865889549 c0,1.909999966621399 0.800000011920929,3.640000104904175 3.430000066757202,3.640000104904175 c2.0999999046325684,0 5.070000171661377,-0.17000000178813934 6.409999847412109,-0.30000001192092896 h0.10000000149011612 c0.3700000047683716,0 0.6299999952316284,0.17000000178813934 0.6299999952316284,0.5299999713897705 V143.4499969482422 c0,0.5299999713897705 -0.12999999523162842,0.7699999809265137 -0.699999988079071,0.8999999761581421 a25.579999923706055,25.579999923706055 0 0 1 -6.840000152587891,0.800000011920929 c-4,0 -8.369999885559082,-2.130000114440918 -8.369999885559082,-8.569999694824219 v-2.3399999141693115 c0,-5.369999885559082 3.130000114440918,-8.779999732971191 8.4399995803833,-8.779999732971191 c5.46999979019165,0 8.239999771118164,3.740000009536743 8.239999771118164,8.779999732971191 v1.9299999475479126 c0,0.5099999904632568 -0.27000001072883606,0.8100000023841858 -0.699999988079071,0.8100000023841858 " id="svg_8"/><path class="cls-1" d="M274.45001220703125,126.52999877929688 l-4.210000038146973,15.149999618530273 c-0.8299999833106995,3 -2.869999885559082,3.5 -4.840000152587891,3.5 s-4,-0.5299999713897705 -4.800000190734863,-3.5 l-4.170000076293945,-15.149999618530273 a0.46000000834465027,0.46000000834465027 0 0 1 0,-0.20000000298023224 a0.5400000214576721,0.5400000214576721 0 0 1 0.5299999713897705,-0.5699999928474426 h4.400000095367432 a0.7900000214576721,0.7900000214576721 0 0 1 0.699999988079071,0.699999988079071 l2.880000114440918,13.079999923706055 c0.09000000357627869,0.5 0.25999999046325684,0.699999988079071 0.49000000953674316,0.699999988079071 s0.4399999976158142,-0.20000000298023224 0.5400000214576721,-0.699999988079071 L268.80999755859375,126.44999694824219 c0.10000000149011612,-0.4000000059604645 0.36000001430511475,-0.699999988079071 0.699999988079071,-0.699999988079071 h4.400000095367432 a0.5699999928474426,0.5699999928474426 0 0 1 0.5699999928474426,0.5699999928474426 a0.46000000834465027,0.46000000834465027 0 0 1 0,0.20000000298023224 " id="svg_9"/><path class="cls-1" d="M288.239990234375,133.5399932861328 c0,-2.4700000286102295 -1.1299999952316284,-3.7100000381469727 -3,-3.7100000381469727 s-3.069999933242798,1.2699999809265137 -3.069999933242798,3.7100000381469727 v0.12999999523162842 h6.070000171661377 zm4.570000171661377,3.4700000286102295 H282.1700134277344 v0.05999999865889549 c0,1.909999966621399 0.800000011920929,3.640000104904175 3.440000057220459,3.640000104904175 c2.0999999046325684,0 5.070000171661377,-0.17000000178813934 6.400000095367432,-0.30000001192092896 h0.10000000149011612 c0.3700000047683716,0 0.6399999856948853,0.17000000178813934 0.6399999856948853,0.5299999713897705 V143.4499969482422 c0,0.5299999713897705 -0.12999999523162842,0.7699999809265137 -0.699999988079071,0.8999999761581421 a25.690000534057617,25.690000534057617 0 0 1 -6.840000152587891,0.800000011920929 c-4,0 -8.380000114440918,-2.130000114440918 -8.380000114440918,-8.569999694824219 v-2.3399999141693115 c0,-5.369999885559082 3.140000104904175,-8.779999732971191 8.4399995803833,-8.779999732971191 c5.480000019073486,0 8.239999771118164,3.740000009536743 8.239999771118164,8.779999732971191 v1.9299999475479126 c0,0.5099999904632568 -0.25999999046325684,0.8100000023841858 -0.699999988079071,0.8100000023841858 " id="svg_10"/><path class="cls-1" d="M302.4200134277344,144.87998962402344 h-4.070000171661377 a0.7300000190734863,0.7300000190734863 0 0 1 -0.699999988079071,-0.699999988079071 V119.95999145507812 a0.699999988079071,0.699999988079071 0 0 1 0.699999988079071,-0.6700000166893005 h4.070000171661377 a0.6499999761581421,0.6499999761581421 0 0 1 0.6399999856948853,0.6700000166893005 v24.219999313354492 a0.6700000166893005,0.6700000166893005 0 0 1 -0.6399999856948853,0.699999988079071 " id="svg_11"/><path class="cls-1" d="M318.2099914550781,130.12998962402344 a25.170000076293945,25.170000076293945 0 0 0 -2.740000009536743,-0.1599999964237213 c-2.369999885559082,0 -3,1.7300000190734863 -3,4.070000171661377 v2.5999999046325684 c0,2.369999885559082 0.6000000238418579,4.099999904632568 3,4.099999904632568 a18.6200008392334,18.6200008392334 0 0 0 2.740000009536743,-0.20000000298023224 zm4.369999885559082,14.180000305175781 a31.270000457763672,31.270000457763672 0 0 1 -7.110000133514404,0.8700000047683716 c-5.409999847412109,0 -8.380000114440918,-3.130000114440918 -8.380000114440918,-8.539999961853027 v-2.5999999046325684 c0,-5.239999771118164 2.740000009536743,-8.539999961853027 8.380000114440918,-8.539999961853027 a21.889999389648438,21.889999389648438 0 0 1 2.740000009536743,0.23000000417232513 v-5.769999980926514 a0.6700000166893005,0.6700000166893005 0 0 1 0.6600000262260437,-0.6700000166893005 h4 a0.699999988079071,0.699999988079071 0 0 1 0.699999988079071,0.6700000166893005 v23.3799991607666 c0,0.5400000214576721 -0.12999999523162842,0.7699999809265137 -1,1 " id="svg_12"/><path class="cls-1" d="M339.19000244140625,133.5399932861328 c0,-2.4700000286102295 -1.1299999952316284,-3.7100000381469727 -3,-3.7100000381469727 s-3.069999933242798,1.2699999809265137 -3.069999933242798,3.7100000381469727 v0.12999999523162842 h6.070000171661377 zm4.570000171661377,3.4700000286102295 H333.1199951171875 v0.05999999865889549 c0,1.909999966621399 0.800000011920929,3.640000104904175 3.440000057220459,3.640000104904175 c2.0999999046325684,0 5.070000171661377,-0.17000000178813934 6.400000095367432,-0.30000001192092896 h0.10000000149011612 c0.3700000047683716,0 0.6399999856948853,0.17000000178813934 0.6399999856948853,0.5299999713897705 V143.4499969482422 c0,0.5299999713897705 -0.14000000059604645,0.7699999809265137 -0.699999988079071,0.8999999761581421 a25.690000534057617,25.690000534057617 0 0 1 -6.840000152587891,0.800000011920929 c-4,0 -8.380000114440918,-2.130000114440918 -8.380000114440918,-8.569999694824219 v-2.3399999141693115 c0,-5.369999885559082 3.140000104904175,-8.779999732971191 8.4399995803833,-8.779999732971191 c5.480000019073486,0 8.239999771118164,3.740000009536743 8.239999771118164,8.779999732971191 v1.9299999475479126 c0,0.5099999904632568 -0.25999999046325684,0.8100000023841858 -0.699999988079071,0.8100000023841858 " id="svg_13"/><path class="cls-1" d="M363.8900146484375,144.87998962402344 h-1.6100000143051147 a0.6700000166893005,0.6700000166893005 0 0 1 -0.6600000262260437,-0.6700000166893005 v-11 c0,-3.3399999141693115 -1.409999966621399,-4.369999885559082 -3.569999933242798,-4.369999885559082 a12.899999618530273,12.899999618530273 0 0 0 -4.610000133514404,0.9300000071525574 v14.40999984741211 a0.6899999976158142,0.6899999976158142 0 0 1 -0.6600000262260437,0.6700000166893005 h-1.6399999856948853 a0.6700000166893005,0.6700000166893005 0 0 1 -0.6399999856948853,-0.6700000166893005 V120.44999694824219 a0.6499999761581421,0.6499999761581421 0 0 1 0.6399999856948853,-0.6700000166893005 h1.6699999570846558 a0.6399999856948853,0.6399999856948853 0 0 1 0.6299999952316284,0.6700000166893005 v6.869999885559082 a13.9399995803833,13.9399995803833 0 0 1 5.110000133514404,-1 c3.5299999713897705,0 6,2 6,6.940000057220459 v11 a0.6700000166893005,0.6700000166893005 0 0 1 -0.6600000262260437,0.6700000166893005 " id="svg_14"/><path class="cls-1" d="M380.30999755859375,134.4499969482422 c0,-3.4100000858306885 -1.3600000143051147,-5.570000171661377 -4.5,-5.570000171661377 s-4.46999979019165,2.130000114440918 -4.46999979019165,5.570000171661377 v2.5299999713897705 c0,3.4100000858306885 1.3300000429153442,5.570000171661377 4.46999979019165,5.570000171661377 s4.5,-2.130000114440918 4.5,-5.570000171661377 zm-4.5,10.670000076293945 c-4.909999847412109,0 -7.409999847412109,-3.2300000190734863 -7.409999847412109,-8.140000343322754 V134.4499969482422 c0,-4.909999847412109 2.5,-8.140000343322754 7.409999847412109,-8.140000343322754 s7.440000057220459,3.2300000190734863 7.440000057220459,8.140000343322754 v2.5299999713897705 c0,4.909999847412109 -2.5399999618530273,8.140000343322754 -7.440000057220459,8.140000343322754 " id="svg_15"/><path class="cls-1" d="M398.8900146484375,132.4499969482422 c0,-2 -0.9100000262260437,-3.569999933242798 -4.510000228881836,-3.569999933242798 s-4.5,1.7100000381469727 -4.5,3.569999933242798 v0.27000001072883606 c0,1.4700000286102295 0.6600000262260437,3.4000000953674316 4.5,3.4000000953674316 c3.5999999046325684,0 4.510000228881836,-1.399999976158142 4.510000228881836,-3.4000000953674316 zm0.25999999046325684,13.680000305175781 c0,-1.2999999523162842 -1.0700000524520874,-1.8300000429153442 -4.070000171661377,-2.5999999046325684 l-3.7699999809265137,-1 a4,4 0 0 0 -1.6299999952316284,3.4000000953674316 v0.30000001192092896 c0,1.8700000047683716 1.100000023841858,3 4.800000190734863,3 s4.670000076293945,-1.0700000524520874 4.670000076293945,-2.9100000858306885 zm2.7100000381469727,-17.350000381469727 l-1.2100000381469727,0.23999999463558197 a4.619999885559082,4.619999885559082 0 0 1 1.1399999856948853,3.430000066757202 v0.27000001072883606 c0,3.6700000762939453 -2.2699999809265137,5.710000038146973 -7.409999847412109,5.710000038146973 a9.609999656677246,9.609999656677246 0 0 1 -3.869999885559082,-0.6700000166893005 a1.2100000381469727,1.2100000381469727 0 0 0 -0.8299999833106995,1.1299999952316284 c0,0.5699999928474426 0.25999999046325684,0.8700000047683716 1,1.0700000524520874 l5,1.2699999809265137 c3.2699999809265137,0.8299999833106995 6.409999847412109,1.7699999809265137 6.409999847412109,4.900000095367432 v0.27000001072883606 c0,3.2100000381469727 -2.130000114440918,5.170000076293945 -7.610000133514404,5.170000076293945 c-5.269999980926514,0 -7.670000076293945,-2 -7.670000076293945,-5.300000190734863 v-0.30000001192092896 a5.420000076293945,5.420000076293945 0 0 1 2.0999999046325684,-4.239999771118164 l-0.23000000417232513,-0.10000000149011612 a2.75,2.75 0 0 1 -1.5399999618530273,-2.5999999046325684 v0 a2.75,2.75 0 0 1 1.3700000047683716,-2.4100000858306885 a4.929999828338623,4.929999828338623 0 0 1 -1.5399999618530273,-3.869999885559082 V132.4499969482422 c0,-3 1.6699999570846558,-5.900000095367432 7.409999847412109,-5.900000095367432 h7.309999942779541 a0.7699999809265137,0.7699999809265137 0 0 1 0.7699999809265137,0.7300000190734863 v0.8700000047683716 c0,0.4300000071525574 -0.23999999463558197,0.5699999928474426 -0.6000000238418579,0.6299999952316284 " id="svg_16"/><path class="cls-1" d="M417.0999755859375,134.09999084472656 c0,-3.7699999809265137 -1.4299999475479126,-5.230000019073486 -4.369999885559082,-5.230000019073486 s-4.46999979019165,1.6299999952316284 -4.46999979019165,5.230000019073486 v0.30000001192092896 h8.84000015258789 zm2.3399999141693115,2.5399999618530273 H408.260009765625 v0.4699999988079071 c0,4 1.5700000524520874,5.429999828338623 4.639999866485596,5.429999828338623 a46.45000076293945,46.45000076293945 0 0 0 5.940000057220459,-0.36000001430511475 H419 c0.27000001072883606,0 0.5400000214576721,0.12999999523162842 0.5400000214576721,0.4699999988079071 v1.1299999952316284 c0,0.4300000071525574 -0.12999999523162842,0.6700000166893005 -0.6700000166893005,0.7699999809265137 a30.739999771118164,30.739999771118164 0 0 1 -6,0.5600000023841858 c-3.8399999141693115,0 -7.570000171661377,-1.7999999523162842 -7.570000171661377,-8 v-3 c0,-4.769999980926514 2.630000114440918,-7.800000190734863 7.400000095367432,-7.800000190734863 s7.340000152587891,3.069999933242798 7.340000152587891,7.800000190734863 v1.7999999523162842 c0,0.4399999976158142 -0.23000000417232513,0.7400000095367432 -0.6299999952316284,0.7400000095367432 " id="svg_17"/><path class="cls-1" d="M429.45001220703125,145.11000061035156 a25.81999969482422,25.81999969482422 0 0 1 -5.269999980926514,-0.5 c-0.4399999976158142,-0.10000000149011612 -0.699999988079071,-0.30000001192092896 -0.699999988079071,-0.6600000262260437 v-1.1699999570846558 a0.5400000214576721,0.5400000214576721 0 0 1 0.6000000238418579,-0.5 h0.12999999523162842 c1.600000023841858,0.20000000298023224 4,0.36000001430511475 5.239999771118164,0.36000001430511475 c2.1700000762939453,0 3.299999952316284,-0.5600000023841858 3.299999952316284,-2.359999895095825 c0,-1 -0.6000000238418579,-1.6399999856948853 -2.5,-2.7699999809265137 l-3.369999885559082,-2 c-2,-1.2300000190734863 -3.4000000953674316,-2.6600000858306885 -3.4000000953674316,-4.769999980926514 c0,-3.4700000286102295 2.5999999046325684,-4.429999828338623 6,-4.429999828338623 a31,31 0 0 1 5.199999809265137,0.4300000071525574 c0.4399999976158142,0.07000000029802322 0.6299999952316284,0.30000001192092896 0.6299999952316284,0.6700000166893005 v1.100000023841858 a0.5,0.5 0 0 1 -0.5600000023841858,0.5600000023841858 h-0.10000000149011612 c-1.1699999570846558,-0.10000000149011612 -3.309999942779541,-0.25999999046325684 -5.170000076293945,-0.25999999046325684 s-3.109999895095825,0.23000000417232513 -3.109999895095825,1.9299999475479126 c0,1 0.7699999809265137,1.6399999856948853 2.299999952316284,2.5399999618530273 l3.309999942779541,2 c2.7699999809265137,1.6299999952316284 3.6700000762939453,3.069999933242798 3.6700000762939453,5 c0,3.4000000953674316 -2.5,4.829999923706055 -6.239999771118164,4.829999923706055 " id="svg_18"/><path class="cls-1" d="M450.29998779296875,144.75 a24.25,24.25 0 0 1 -4.170000076293945,0.36000001430511475 c-4.539999961853027,0 -7.110000133514404,-3.200000047683716 -7.110000133514404,-8.100000381469727 V134.4499969482422 c0,-4.900000095367432 2.5399999618530273,-8.100000381469727 7.110000133514404,-8.100000381469727 a24.530000686645508,24.530000686645508 0 0 1 4.170000076293945,0.36000001430511475 c0.5299999713897705,0.10000000149011612 0.6700000166893005,0.27000001072883606 0.6700000166893005,0.7400000095367432 v1.2000000476837158 a0.5099999904632568,0.5099999904632568 0 0 1 -0.5699999928474426,0.5 h-0.12999999523162842 a32,32 0 0 0 -4.139999866485596,-0.23000000417232513 c-2.6700000762939453,0 -4.170000076293945,1.7599999904632568 -4.170000076293945,5.53000020980835 v2.609999895095825 c0,3.7300000190734863 1.4700000286102295,5.539999961853027 4.170000076293945,5.539999961853027 a31.93000030517578,31.93000030517578 0 0 0 4.139999866485596,-0.23999999463558197 h0.12999999523162842 a0.5099999904632568,0.5099999904632568 0 0 1 0.5699999928474426,0.5 v1.2000000476837158 c0,0.4399999976158142 -0.14000000059604645,0.6399999856948853 -0.6700000166893005,0.7400000095367432 " id="svg_19"/><path class="cls-1" d="M468.08001708984375,144.87998962402344 h-1.590000033378601 a0.6700000166893005,0.6700000166893005 0 0 1 -0.6700000166893005,-0.6700000166893005 v-11 c0,-3.3399999141693115 -1.409999966621399,-4.369999885559082 -3.569999933242798,-4.369999885559082 a12.899999618530273,12.899999618530273 0 0 0 -4.610000133514404,0.9300000071525574 v14.40999984741211 a0.6899999976158142,0.6899999976158142 0 0 1 -0.6600000262260437,0.6700000166893005 h-1.6399999856948853 a0.6600000262260437,0.6600000262260437 0 0 1 -0.6299999952316284,-0.6700000166893005 V120.44999694824219 a0.6399999856948853,0.6399999856948853 0 0 1 0.6299999952316284,-0.6700000166893005 H457 a0.6399999856948853,0.6399999856948853 0 0 1 0.6299999952316284,0.6700000166893005 v6.869999885559082 a13.9399995803833,13.9399995803833 0 0 1 5.110000133514404,-1 c3.5299999713897705,0 6,2 6,6.940000057220459 v11 a0.6700000166893005,0.6700000166893005 0 0 1 -0.6700000166893005,0.6700000166893005 " id="svg_20"/><path class="cls-1" d="M484.17999267578125,134.4499969482422 c0,-3.4100000858306885 -1.3700000047683716,-5.570000171661377 -4.510000228881836,-5.570000171661377 s-4.46999979019165,2.130000114440918 -4.46999979019165,5.570000171661377 v2.5299999713897705 c0,3.4100000858306885 1.340000033378601,5.570000171661377 4.46999979019165,5.570000171661377 s4.510000228881836,-2.130000114440918 4.510000228881836,-5.570000171661377 zm-4.510000228881836,10.670000076293945 c-4.900000095367432,0 -7.400000095367432,-3.2300000190734863 -7.400000095367432,-8.140000343322754 V134.4499969482422 c0,-4.909999847412109 2.5,-8.140000343322754 7.400000095367432,-8.140000343322754 s7.440000057220459,3.2300000190734863 7.440000057220459,8.140000343322754 v2.5299999713897705 c0,4.909999847412109 -2.5299999713897705,8.140000343322754 -7.440000057220459,8.140000343322754 " id="svg_21"/><path class="cls-1" d="M502.28997802734375,134.4499969482422 c0,-3.4100000858306885 -1.3700000047683716,-5.570000171661377 -4.510000228881836,-5.570000171661377 s-4.46999979019165,2.130000114440918 -4.46999979019165,5.570000171661377 v2.5299999713897705 c0,3.4100000858306885 1.340000033378601,5.570000171661377 4.46999979019165,5.570000171661377 s4.510000228881836,-2.130000114440918 4.510000228881836,-5.570000171661377 zm-4.510000228881836,10.670000076293945 c-4.900000095367432,0 -7.400000095367432,-3.2300000190734863 -7.400000095367432,-8.140000343322754 V134.4499969482422 c0,-4.909999847412109 2.5,-8.140000343322754 7.400000095367432,-8.140000343322754 s7.440000057220459,3.2300000190734863 7.440000057220459,8.140000343322754 v2.5299999713897705 c0,4.909999847412109 -2.5299999713897705,8.140000343322754 -7.440000057220459,8.140000343322754 " id="svg_22"/><path class="cls-1" d="M511,144.87998962402344 h-1.7300000190734863 a0.6299999952316284,0.6299999952316284 0 0 1 -0.6000000238418579,-0.6700000166893005 V120.44999694824219 a0.6000000238418579,0.6000000238418579 0 0 1 0.6000000238418579,-0.6299999952316284 H511 a0.6000000238418579,0.6000000238418579 0 0 1 0.6000000238418579,0.6299999952316284 v23.790000915527344 a0.6299999952316284,0.6299999952316284 0 0 1 -0.6000000238418579,0.6700000166893005 " id="svg_23"/></g></svg>