<svg width="170" height="50" viewBox="0 0 170 50" fill="none" xmlns="http://www.w3.org/2000/svg">
<rect width="170" height="50" rx="8" fill="black"/>
<path fill-rule="evenodd" clip-rule="evenodd" d="M65.0967 39.3217H67.9638L61.6874 21.955H58.7842L52.5078 39.3217H55.2786L56.8808 34.7122H63.5065L65.0967 39.3217ZM60.0973 25.1082H60.3021L62.8198 32.4496H57.5674L60.0973 25.1082ZM75.566 25.9988C73.7831 25.9988 72.2411 26.8894 71.446 28.3818H71.2533V26.2155H68.7596V43.5701H71.3497V37.3359H71.5545C72.2411 38.7199 73.7229 39.5383 75.5901 39.5383C78.903 39.5383 81.0111 36.9267 81.0111 32.7626C81.0111 28.5984 78.903 25.9988 75.566 25.9988ZM74.8312 37.2155C72.6628 37.2155 71.3015 35.5066 71.3015 32.7746C71.3015 30.0306 72.6628 28.3216 74.8432 28.3216C77.0357 28.3216 78.3488 29.9945 78.3488 32.7626C78.3488 35.5427 77.0357 37.2155 74.8312 37.2155ZM88.9989 25.9988C87.216 25.9988 85.674 26.8894 84.8789 28.3818H84.6861V26.2155H82.1925V43.5701H84.7825V37.3359H84.9873C85.674 38.7199 87.1557 39.5383 89.023 39.5383C92.3358 39.5383 94.444 36.9267 94.444 32.7626C94.444 28.5984 92.3358 25.9988 88.9989 25.9988ZM88.264 37.2155C86.0956 37.2155 84.7343 35.5066 84.7343 32.7746C84.7343 30.0306 86.0956 28.3216 88.2761 28.3216C90.4686 28.3216 91.7817 29.9945 91.7817 32.7626C91.7817 35.5427 90.4686 37.2155 88.264 37.2155ZM99.9268 34.6521C100.119 37.7571 102.71 39.7429 106.565 39.7429C110.684 39.7429 113.262 37.6608 113.262 34.3392C113.262 31.7275 111.793 30.2833 108.227 29.4529L106.312 28.9835C104.047 28.454 103.131 27.7439 103.131 26.5043C103.131 24.9397 104.553 23.9168 106.685 23.9168C108.709 23.9168 110.106 24.9157 110.359 26.5163H112.985C112.829 23.5918 110.251 21.5338 106.721 21.5338C102.926 21.5338 100.397 23.5918 100.397 26.6848C100.397 29.2363 101.83 30.7527 104.974 31.4868L107.215 32.0284C109.516 32.57 110.528 33.3643 110.528 34.6882C110.528 36.2287 108.938 37.3479 106.769 37.3479C104.444 37.3479 102.83 36.3009 102.601 34.6521H99.9268ZM115.492 23.0382V26.2756H113.336V28.454H115.492V35.8556C115.492 38.383 116.636 39.3939 119.515 39.3939C120.021 39.3939 120.491 39.3337 120.901 39.2615V37.1072C120.539 37.1433 120.335 37.1674 119.937 37.1674C118.648 37.1674 118.082 36.5657 118.082 35.1937V28.454H121.021V26.2756H118.082V23.0382H115.492ZM127.443 37.2757C125.19 37.2757 123.925 35.6269 123.925 32.7626C123.925 29.9223 125.19 28.2614 127.443 28.2614C129.684 28.2614 130.961 29.9223 130.961 32.7626C130.961 35.6149 129.684 37.2757 127.443 37.2757ZM127.443 39.5744C131.274 39.5744 133.623 37.011 133.623 32.7626C133.623 28.5382 131.262 25.9627 127.443 25.9627C123.612 25.9627 121.251 28.5382 121.251 32.7626C121.251 37.011 123.6 39.5744 127.443 39.5744ZM134.804 39.3217H137.394V31.5831C137.394 29.7418 138.78 28.5021 140.731 28.5021C141.165 28.5021 141.96 28.5864 142.165 28.6586V26.1072C141.888 26.0349 141.394 25.9988 141.02 25.9988C139.31 25.9988 137.864 26.9376 137.491 28.2253H137.298V26.2155H134.804V39.3217ZM147.996 28.1652C149.912 28.1652 151.165 29.5011 151.225 31.5591H144.599C144.744 29.5131 146.081 28.1652 147.996 28.1652ZM151.213 35.7834C150.731 36.8064 149.659 37.372 148.093 37.372C146.021 37.372 144.683 35.9158 144.599 33.6171V33.4726H153.863V32.57C153.863 28.454 151.658 25.9627 148.008 25.9627C144.31 25.9627 141.961 28.6225 141.961 32.8107C141.961 36.9989 144.262 39.5744 148.02 39.5744C151.02 39.5744 153.116 38.1302 153.706 35.7834H151.213Z" fill="white"/>
<path fill-rule="evenodd" clip-rule="evenodd" d="M54.9336 8.39921V16.669H57.9223C60.389 16.669 61.8174 15.1503 61.8174 12.5083C61.8174 9.90646 60.3776 8.39921 57.9223 8.39921H54.9336ZM56.2186 9.56833H57.7789C59.4941 9.56833 60.5095 10.6572 60.5095 12.5255C60.5095 14.4225 59.5114 15.4999 57.7789 15.4999H56.2186V9.56833ZM66.339 15.6948C65.2663 15.6948 64.6639 14.9096 64.6639 13.5456C64.6639 12.1931 65.2663 11.4023 66.339 11.4023C67.406 11.4023 68.0141 12.1931 68.0141 13.5456C68.0141 14.9039 67.406 15.6948 66.339 15.6948ZM66.339 16.7894C68.1632 16.7894 69.2818 15.5687 69.2818 13.5456C69.2818 11.5341 68.1575 10.3076 66.339 10.3076C64.5148 10.3076 63.3904 11.5341 63.3904 13.5456C63.3904 15.5687 64.509 16.7894 66.339 16.7894ZM78.9491 10.428H77.7157L76.6028 15.1904H76.5053L75.2203 10.428H74.0386L72.7536 15.1904H72.6618L71.5432 10.428H70.2926L72.0136 16.669H73.2814L74.5663 12.0728H74.6639L75.9546 16.669H77.2338L78.9491 10.428ZM80.5163 16.669H81.7497V13.0184C81.7497 12.0441 82.3577 11.4366 83.3501 11.4366C84.268 11.4366 84.7154 11.9352 84.7154 12.9382V16.669H85.9488V12.6287C85.9488 11.1444 85.1629 10.3076 83.7689 10.3076C82.8281 10.3076 82.0996 10.726 81.7955 11.4194H81.7038V10.428H80.5163V16.669ZM88.0323 16.669H89.2657V7.99231H88.0323V16.669ZM94.0454 15.6948C92.9726 15.6948 92.3703 14.9096 92.3703 13.5456C92.3703 12.1931 92.9726 11.4023 94.0454 11.4023C95.1124 11.4023 95.7204 12.1931 95.7204 13.5456C95.7204 14.9039 95.1124 15.6948 94.0454 15.6948ZM94.0454 16.7894C95.8696 16.7894 96.9882 15.5687 96.9882 13.5456C96.9882 11.5341 95.8638 10.3076 94.0454 10.3076C92.2211 10.3076 91.0968 11.5341 91.0968 13.5456C91.0968 15.5687 92.2154 16.7894 94.0454 16.7894ZM100.804 15.7349C100.133 15.7349 99.6454 15.4082 99.6454 14.8466C99.6454 14.2964 100.035 14.0041 100.896 13.9468L102.422 13.8494V14.3709C102.422 15.1446 101.733 15.7349 100.804 15.7349ZM100.489 16.7722C101.309 16.7722 101.992 16.4169 102.365 15.7922H102.462V16.669H103.649V12.4052C103.649 11.0871 102.766 10.3076 101.2 10.3076C99.7831 10.3076 98.7734 10.9954 98.6472 12.0671H99.8404C99.9781 11.6258 100.454 11.3736 101.143 11.3736C101.986 11.3736 102.422 11.7461 102.422 12.4052V12.9439L100.73 13.0413C99.2438 13.133 98.4063 13.7806 98.4063 14.9039C98.4063 16.0444 99.284 16.7722 100.489 16.7722ZM107.982 16.7722C108.842 16.7722 109.571 16.3653 109.944 15.6833H110.041V16.669H111.223V7.99231H109.99V11.4194H109.898C109.559 10.7317 108.836 10.3248 107.982 10.3248C106.404 10.3248 105.389 11.5742 105.389 13.5456C105.389 15.5228 106.393 16.7722 107.982 16.7722ZM108.332 11.4309C109.364 11.4309 110.012 12.2504 110.012 13.5514C110.012 14.858 109.37 15.6661 108.332 15.6661C107.288 15.6661 106.662 14.8695 106.662 13.5456C106.662 12.2333 107.293 11.4309 108.332 11.4309ZM119.509 15.6948C118.436 15.6948 117.834 14.9096 117.834 13.5456C117.834 12.1931 118.436 11.4023 119.509 11.4023C120.576 11.4023 121.184 12.1931 121.184 13.5456C121.184 14.9039 120.576 15.6948 119.509 15.6948ZM119.509 16.7894C121.333 16.7894 122.452 15.5687 122.452 13.5456C122.452 11.5341 121.327 10.3076 119.509 10.3076C117.685 10.3076 116.56 11.5341 116.56 13.5456C116.56 15.5687 117.679 16.7894 119.509 16.7894ZM124.225 16.669H125.459V13.0184C125.459 12.0441 126.067 11.4366 127.059 11.4366C127.977 11.4366 128.424 11.9352 128.424 12.9382V16.669H129.658V12.6287C129.658 11.1444 128.872 10.3076 127.478 10.3076C126.537 10.3076 125.809 10.726 125.505 11.4194H125.413V10.428H124.225V16.669ZM135.626 8.915V10.4566H134.599V11.494H135.626V15.0185C135.626 16.222 136.171 16.7034 137.542 16.7034C137.783 16.7034 138.007 16.6748 138.202 16.6404V15.6145C138.03 15.6317 137.932 15.6432 137.743 15.6432C137.129 15.6432 136.86 15.3566 136.86 14.7033V11.494H138.259V10.4566H136.86V8.915H135.626ZM140.016 16.669H141.249V13.0241C141.249 12.0785 141.874 11.4424 142.884 11.4424C143.813 11.4424 144.278 11.9467 144.278 12.9439V16.669H145.511V12.6402C145.511 11.1558 144.708 10.3134 143.303 10.3134C142.362 10.3134 141.639 10.7317 141.335 11.4309H141.238V7.99231H140.016V16.669ZM150.107 11.3564C151.02 11.3564 151.616 11.9925 151.645 12.9725H148.49C148.559 11.9983 149.195 11.3564 150.107 11.3564ZM151.639 14.9841C151.41 15.4713 150.899 15.7406 150.153 15.7406C149.167 15.7406 148.53 15.0472 148.49 13.9526V13.8838H152.901V13.454C152.901 11.494 151.851 10.3076 150.113 10.3076C148.352 10.3076 147.233 11.5742 147.233 13.5686C147.233 15.563 148.329 16.7894 150.119 16.7894C151.547 16.7894 152.546 16.1017 152.827 14.9841H151.639Z" fill="white"/>
<path fill-rule="evenodd" clip-rule="evenodd" d="M37.6013 26.0063C37.5635 21.8085 41.0418 19.7662 41.2009 19.6712C39.231 16.8019 36.1777 16.4098 35.1047 16.3786C32.5403 16.109 30.0528 17.9116 28.7465 17.9116C27.4141 17.9116 25.4025 16.4046 23.2344 16.4489C20.4444 16.4919 17.8344 18.1056 16.4029 20.6115C13.4487 25.7211 15.652 33.2297 18.4823 37.3598C19.8982 39.3838 21.5526 41.641 23.7181 41.5615C25.8366 41.4756 26.628 40.2122 29.1845 40.2122C31.7177 40.2122 32.4608 41.5615 34.6693 41.5094C36.943 41.4756 38.3744 39.4789 39.7407 37.4367C41.3769 35.1209 42.034 32.8351 42.06 32.7179C42.0079 32.7009 37.6457 31.0377 37.6013 26.0063Z" fill="white"/>
<path fill-rule="evenodd" clip-rule="evenodd" d="M33.4315 13.6617C34.5709 12.2381 35.3506 10.3013 35.1341 8.33594C33.4849 8.40887 31.4225 9.47559 30.2348 10.8679C29.184 12.0948 28.2453 14.1058 28.4878 15.997C30.3404 16.135 32.2425 15.0631 33.4315 13.6617Z" fill="white"/>
</svg>
