<svg width="170" height="50" viewBox="0 0 170 50" fill="none" xmlns="http://www.w3.org/2000/svg">
<rect width="170" height="50" rx="8" fill="black"/>
<path fill-rule="evenodd" clip-rule="evenodd" d="M89.4791 16.2882C87.2392 16.2882 85.4235 14.4311 85.4235 12.1402C85.4235 9.8494 87.2392 7.99231 89.4791 7.99231C91.7189 7.99231 93.5347 9.8494 93.5347 12.1402C93.5347 14.4311 91.7189 16.2882 89.4791 16.2882ZM89.4791 15.0207C91.0345 15.0207 92.2954 13.7311 92.2954 12.1402C92.2954 10.5494 91.0345 9.25973 89.4791 9.25973C87.9236 9.25973 86.6627 10.5494 86.6627 12.1402C86.6627 13.7311 87.9236 15.0207 89.4791 15.0207Z" fill="white"/>
<path fill-rule="evenodd" clip-rule="evenodd" d="M61.9887 12.6013V15.1361H65.2557V16.0579H61.9887H60.7495V8.45335V8.33813H65.2557V9.25989H61.9887V11.6795H64.9178V12.6013H61.9887Z" fill="white"/>
<path fill-rule="evenodd" clip-rule="evenodd" d="M69.6503 9.25989V16.0579H68.4111V9.25989H66.496V8.33813H71.5655V9.25989H69.6503Z" fill="white"/>
<path fill-rule="evenodd" clip-rule="evenodd" d="M80.6922 9.25989V16.0579H79.453V9.25989H77.5378V8.33813H82.6073V9.25989H80.6922Z" fill="white"/>
<path d="M76.4094 8.33813H75.1702V16.0579H76.4094V8.33813Z" fill="white"/>
<path fill-rule="evenodd" clip-rule="evenodd" d="M95.7878 8.33813H96.0131L99.3928 13.9867V8.33813H100.632V16.0579H99.3928L95.7878 10.0327V16.0579H94.5486V8.33813H95.7878Z" fill="white"/>
<path fill-rule="evenodd" clip-rule="evenodd" d="M56.1064 11.814H59.4994L59.4658 12.9122H56.1064V11.814Z" fill="white"/>
<path fill-rule="evenodd" clip-rule="evenodd" d="M58.8345 9.22983L58.0582 10.023C57.5739 9.51719 56.8861 9.23988 56.0925 9.23988C54.5062 9.23988 53.2203 10.5537 53.2203 12.1743C53.2203 13.7949 54.5062 15.1087 56.0925 15.1087C57.6788 15.1087 58.805 14.1718 58.8027 12.1743C58.8054 12.0509 58.8025 11.9307 58.7945 11.8139H59.7856C59.7857 11.8275 59.7857 11.8411 59.7857 11.8548C60.1585 14.6515 58.2942 16.2619 56.0589 16.2413C53.8604 16.2381 52.0781 14.4205 52.0781 12.1743C52.0781 9.92816 53.8604 8.1073 56.0589 8.1073C57.2081 8.1073 58.1742 8.51749 58.8345 9.22983Z" fill="white"/>
<path fill-rule="evenodd" clip-rule="evenodd" d="M122.3 22.1646L128.692 22.1646C128.692 22.1646 132.372 22.8043 132.372 27.1224C132.372 31.4405 128.692 32.0803 128.692 32.0803H122.3V22.1646ZM123.54 24.5631V29.8843H127.879C127.879 29.8843 129.854 29.8843 129.854 27.2237C129.854 24.5631 127.879 24.5631 127.879 24.5631H123.54Z" fill="white"/>
<path d="M123.991 22.1644H121.736V38.2952H123.991V22.1644Z" fill="white"/>
<path d="M135.942 22.1644H133.687V38.2952H135.942V22.1644Z" fill="white"/>
<path fill-rule="evenodd" clip-rule="evenodd" d="M144.302 37.1415C143.681 37.6652 142.688 38.158 141.12 38.2581C137.527 38.4874 137.525 35.1369 137.525 34.911C137.525 34.6851 137.348 31.9527 140.206 31.5184C142.23 31.2108 143.647 31.7233 144.302 32.0486V31.5747C144.141 30.947 143.643 29.7936 142.148 29.7936C140.095 29.7936 139.642 30.928 139.642 30.928L137.763 29.7936C137.763 29.7936 138.814 27.5793 141.968 27.5793C145.89 27.5793 146.557 30.3434 146.557 31.2743C146.557 31.2789 146.557 31.2834 146.557 31.2878V38.2896H144.302V37.1415ZM144.141 33.6863C144.141 33.6863 139.797 32.4898 139.646 34.9837C139.495 37.4777 143.813 36.2802 144.199 34.5122C144.199 33.95 144.141 33.6863 144.141 33.6863Z" fill="white"/>
<path fill-rule="evenodd" clip-rule="evenodd" d="M150.787 37.6829L146.767 27.925H149.022L151.915 34.9463L154.784 27.9809H157.039L150.939 42.7884H148.684L150.787 37.6829Z" fill="white"/>
<path fill-rule="evenodd" clip-rule="evenodd" d="M116.689 31.6957L109.558 34.7077C109.558 34.7077 110.018 36.3736 112.162 36.3848C113.841 36.3935 114.789 34.864 114.789 34.864L116.599 36.1162C116.599 36.1162 115.139 38.5294 112.148 38.5294C108.473 38.5294 106.855 35.2457 106.855 33.1131C106.855 31.0585 108.14 27.5793 111.92 27.5793C115.701 27.5793 116.689 31.6957 116.689 31.6957ZM113.976 30.8424C113.976 30.8424 113.079 29.4473 111.703 29.7046C108.792 30.2488 109.158 32.852 109.158 32.852L113.976 30.8424Z" fill="white"/>
<path d="M105.856 22.1644H103.47V38.2613H105.856V22.1644Z" fill="white"/>
<path fill-rule="evenodd" clip-rule="evenodd" d="M99.6532 27.9292L101.858 27.9487V38.1053C101.858 40.7003 100.347 43.4396 96.7873 43.4396C93.2281 43.4396 92.0785 40.2169 92.0785 40.2169L94.1039 39.3465C94.1039 39.3465 94.7216 41.3326 96.8926 41.3326C99.3649 41.3326 99.6535 39.0341 99.6535 38.2473V37.1451C99.6535 37.1451 98.798 38.5133 96.6733 38.5133C94.3697 38.5133 91.6322 36.4963 91.6322 33.0578C91.6322 29.6194 94.2099 27.6526 96.7 27.581C98.6945 27.5237 99.6532 28.9337 99.6532 28.9337V27.9292ZM96.8616 36.4493C98.4698 36.4493 99.7735 34.9439 99.7735 33.0868C99.7735 31.2298 98.4698 29.7244 96.8616 29.7244C95.2534 29.7244 93.9497 31.2298 93.9497 33.0868C93.9497 34.9439 95.2534 36.4493 96.8616 36.4493Z" fill="white"/>
<path fill-rule="evenodd" clip-rule="evenodd" d="M85.275 38.5253C82.3105 38.5253 79.9073 36.0749 79.9073 33.0523C79.9073 30.0297 82.3105 27.5793 85.275 27.5793C88.2395 27.5793 90.6427 30.0297 90.6427 33.0523C90.6427 36.0749 88.2395 38.5253 85.275 38.5253ZM85.24 36.379C86.9063 36.379 88.2571 34.8896 88.2571 33.0523C88.2571 31.215 86.9063 29.7256 85.24 29.7256C83.5736 29.7256 82.2228 31.215 82.2228 33.0523C82.2228 34.8896 83.5736 36.379 85.24 36.379Z" fill="white"/>
<path fill-rule="evenodd" clip-rule="evenodd" d="M73.6632 38.5253C70.6987 38.5253 68.2955 36.0749 68.2955 33.0523C68.2955 30.0297 70.6987 27.5793 73.6632 27.5793C76.6277 27.5793 79.0309 30.0297 79.0309 33.0523C79.0309 36.0749 76.6277 38.5253 73.6632 38.5253ZM73.6282 36.379C75.2945 36.379 76.6453 34.8896 76.6453 33.0523C76.6453 31.215 75.2945 29.7256 73.6282 29.7256C71.9618 29.7256 70.611 31.215 70.611 33.0523C70.611 34.8896 71.9618 36.379 73.6282 36.379Z" fill="white"/>
<path fill-rule="evenodd" clip-rule="evenodd" d="M59.8016 29.3142H66.8884L66.8182 31.6035H59.8016V29.3142Z" fill="white"/>
<path fill-rule="evenodd" clip-rule="evenodd" d="M65.4949 23.9278L63.8733 25.5813C62.8618 24.5268 61.4252 23.9488 59.7676 23.9488C56.4544 23.9488 53.7685 26.6874 53.7685 30.0656C53.7685 33.4438 56.4544 36.1824 59.7676 36.1824C63.0809 36.1824 65.4333 34.2294 65.4283 30.0656C65.4339 29.8083 65.4281 29.5578 65.4112 29.3144H67.4813C67.4815 29.3427 67.4817 29.3711 67.4817 29.3995C68.2603 35.2293 64.3663 38.5862 59.6975 38.5433C55.1054 38.5366 51.3828 34.7477 51.3828 30.0656C51.3828 25.3835 55.1054 21.5879 59.6975 21.5879C62.0978 21.5879 64.1156 22.4429 65.4949 23.9278Z" fill="white"/>
<mask id="mask0" mask-type="alpha" maskUnits="userSpaceOnUse" x="13" y="8" width="29" height="33">
<path d="M40.21 22.8844C41.9436 23.893 41.9434 25.5284 40.21 26.5369L16.1389 40.5422C14.4053 41.5508 13 40.7448 13 38.7387L13 10.6832C13 8.67846 14.4054 7.87102 16.1389 8.87956L40.21 22.8844Z" fill="white"/>
</mask>
<g mask="url(#mask0)">
<path d="M40.2092 22.8845C41.9427 23.8931 41.9426 25.5285 40.2092 26.5371L16.138 40.5423C14.4045 41.551 12.9991 40.7449 12.9991 38.7388L12.9991 10.6833C12.9991 8.67858 14.4046 7.87115 16.138 8.87968L40.2092 22.8845Z" fill="url(#paint0_linear)"/>
<path fill-rule="evenodd" clip-rule="evenodd" d="M12.9769 8.44177L28.7209 24.4499L12.7736 41.0907L12.9769 8.44177Z" fill="url(#paint1_linear)"/>
<path fill-rule="evenodd" clip-rule="evenodd" d="M9.74023 5.146L28.7199 24.4543L34.3628 18.9472L9.74023 5.146Z" fill="url(#paint2_linear)"/>
<path fill-rule="evenodd" clip-rule="evenodd" d="M28.7238 24.4508L37.3625 33.3585L11.5553 42.2663L28.7238 24.4508Z" fill="url(#paint3_linear)"/>
</g>
<defs>
<linearGradient id="paint0_linear" x1="41.5093" y1="24.7112" x2="30.4152" y2="24.7112" gradientUnits="userSpaceOnUse">
<stop stop-color="#FBDA09"/>
<stop offset="1" stop-color="#FFBC00"/>
</linearGradient>
<linearGradient id="paint1_linear" x1="12.7736" y1="27.5334" x2="24.4729" y2="25.9345" gradientUnits="userSpaceOnUse">
<stop stop-color="#01E2FF"/>
<stop offset="1" stop-color="#01C4FF"/>
</linearGradient>
<linearGradient id="paint2_linear" x1="14.7339" y1="9.02735" x2="26.6493" y2="24.2174" gradientUnits="userSpaceOnUse">
<stop stop-color="#28D781"/>
<stop offset="1" stop-color="#02F076"/>
</linearGradient>
<linearGradient id="paint3_linear" x1="30.7786" y1="27.5561" x2="20.544" y2="44.5403" gradientUnits="userSpaceOnUse">
<stop stop-color="#F2414E"/>
<stop offset="1" stop-color="#E02554"/>
</linearGradient>
</defs>
</svg>
